<?xml version="1.0" standalone="no"?>
<!DOCTYPE svg PUBLIC "-//W3C//DTD SVG 20010904//EN"
 "http://www.w3.org/TR/2001/REC-SVG-20010904/DTD/svg10.dtd">
<svg version="1.0" xmlns="http://www.w3.org/2000/svg"
 width="700.000000pt" height="700.000000pt" viewBox="0 0 700.000000 700.000000"
 preserveAspectRatio="xMidYMid meet">
<metadata>
Created by potrace 1.11, written by Peter Selinger 2001-2013
</metadata>
<g transform="translate(0.000000,700.000000) scale(0.100000,-0.100000)"
fill="#000000" stroke="none">
<path d="M3377 6594 c-1 -1 -54 -5 -117 -9 -63 -3 -117 -8 -120 -10 -3 -1 -32
-6 -65 -10 -49 -5 -311 -56 -365 -70 -474 -126 -927 -371 -1284 -695 -134
-121 -306 -307 -381 -410 -21 -30 -42 -57 -46 -60 -9 -7 -149 -217 -149 -224
0 -3 -15 -29 -33 -58 -48 -75 -147 -283 -200 -418 -46 -117 -116 -340 -124
-395 -2 -16 -8 -43 -13 -60 -14 -47 -36 -167 -46 -250 -3 -27 -8 -61 -10 -75
-23 -137 -22 -493 1 -705 28 -249 123 -612 216 -822 11 -23 19 -45 19 -48 0
-12 135 -277 163 -322 15 -24 27 -47 27 -53 0 -5 5 -10 10 -10 6 0 10 -5 10
-11 0 -9 104 -168 137 -209 7 -8 25 -31 40 -51 410 -525 954 -894 1588 -1079
56 -16 135 -37 176 -45 140 -31 155 -34 214 -41 28 -3 58 -8 69 -10 10 -2 44
-6 75 -9 31 -3 81 -8 111 -11 59 -6 385 -6 435 0 17 2 60 7 97 10 37 4 75 8
85 10 10 2 39 6 64 10 197 29 411 84 609 157 232 86 545 252 724 384 317 233
553 477 759 781 77 114 210 344 222 386 4 12 11 28 15 33 38 51 178 446 204
575 3 14 14 68 25 120 12 52 23 113 26 135 4 22 8 51 10 65 4 27 12 109 21
200 7 72 6 384 -1 435 -3 22 -8 67 -10 100 -3 33 -7 69 -9 81 -2 12 -7 45 -11
75 -4 30 -15 92 -25 139 -10 47 -21 96 -24 110 -20 98 -106 365 -150 465 -120
269 -215 437 -370 650 -28 39 -53 72 -56 75 -3 3 -37 43 -76 90 -115 137 -279
294 -468 447 -288 233 -766 462 -1146 548 -159 37 -229 50 -315 61 -22 3 -53
7 -70 9 -94 12 -459 27 -468 19z"/>
</g>
</svg>
